STARTFONT 2.1
COMMENT "Generated by fontforge, http://fontforge.sourceforge.net"
COMMENT "Matthew Skala (2011); based on code by Norbert Schwarz (1986, 2011)"
FONT -FontForge-OCRB-Regular-R-Normal--18-130-100-100-M-130-ISO10646-1
SIZE 13 100 100
FONTBOUNDINGBOX 16 23 -2 -6
STARTPROPERTIES 41
FOUNDRY "FontForge"
FAMILY_NAME "OCRB"
WEIGHT_NAME "Regular"
SLANT "R"
SETWIDTH_NAME "Normal"
ADD_STYLE_NAME ""
PIXEL_SIZE 18
POINT_SIZE 130
RESOLUTION_X 100
RESOLUTION_Y 100
SPACING "M"
AVERAGE_WIDTH 130
CHARSET_REGISTRY "ISO10646"
CHARSET_ENCODING "1"
FONTNAME_REGISTRY ""
CHARSET_COLLECTIONS "ISO10646-1"
FONT_NAME "OCRB"
FACE_NAME "OCR B Regular"
COPYRIGHT "Matthew Skala (2011); based on code by Norbert Schwarz (1986, 2011)"
FONT_VERSION "2"
FONT_ASCENT 14
FONT_DESCENT 4
UNDERLINE_POSITION 0
UNDERLINE_THICKNESS 0
X_HEIGHT 9
CAP_HEIGHT 12
RAW_ASCENT 800
RAW_DESCENT 200
NORM_SPACE 13
RELATIVE_WEIGHT 40
RELATIVE_SETWIDTH 50
SUPERSCRIPT_X 0
SUPERSCRIPT_Y 8
SUPERSCRIPT_SIZE 12
SUBSCRIPT_X 0
SUBSCRIPT_Y 2
SUBSCRIPT_SIZE 12
FIGURE_WIDTH 13
AVG_LOWERCASE_WIDTH 130
AVG_UPPERCASE_WIDTH "130"
_GBDFED_INFO "Edited with gbdfed 1.6."
ENDPROPERTIES
CHARS 139
STARTCHAR .notdef
ENCODING -1
SWIDTH 886 0
DWIDTH 16 0
BBX 0 0 0 0
BITMAP
ENDCHAR
STARTCHAR quotesingle.alt
ENCODING -1
SWIDTH 886 0
DWIDTH 16 0
BBX 1 3 6 9
BITMAP
80
80
80
ENDCHAR
STARTCHAR grave.alt
ENCODING -1
SWIDTH 886 0
DWIDTH 16 0
BBX 2 3 5 9
BITMAP
C0
C0
40
ENDCHAR
STARTCHAR quotedbl.alt
ENCODING -1
SWIDTH 886 0
DWIDTH 16 0
BBX 5 3 4 11
BITMAP
D8
D8
D8
ENDCHAR
STARTCHAR bar.alt
ENCODING -1
SWIDTH 886 0
DWIDTH 16 0
BBX 2 14 0 -2
BITMAP
C0
C0
C0
C0
C0
C0
C0
C0
C0
C0
C0
C0
C0
C0
ENDCHAR
STARTCHAR space
ENCODING 32
SWIDTH 886 0
DWIDTH 16 0
BBX 0 0 0 0
BITMAP
ENDCHAR
STARTCHAR exclam
ENCODING 33
SWIDTH 886 0
DWIDTH 16 0
BBX 3 15 5 -1
BITMAP
40
40
40
40
40
40
40
40
40
00
00
00
40
E0
E0
ENDCHAR
STARTCHAR quotedbl
ENCODING 34
SWIDTH 886 0
DWIDTH 16 0
BBX 7 6 3 8
BITMAP
C6
C6
C6
C6
C6
C6
ENDCHAR
STARTCHAR numbersign
ENCODING 35
SWIDTH 886 0
DWIDTH 16 0
BBX 9 14 2 0
BITMAP
1980
1980
1180
3300
FF80
7F80
3300
6200
FF00
FF80
6600
4400
CC00
CC00
ENDCHAR
STARTCHAR dollar
ENCODING 36
SWIDTH 886 0
DWIDTH 16 0
BBX 9 14 2 0
BITMAP
0800
3E00
7F00
C980
C800
F800
7E00
0F00
0980
0980
C980
FF00
3E00
0800
ENDCHAR
STARTCHAR percent
ENCODING 37
SWIDTH 886 0
DWIDTH 16 0
BBX 9 14 2 0
BITMAP
7180
F180
DB00
F300
7600
0C00
0C00
1800
1800
3700
6780
6D80
C780
C700
ENDCHAR
STARTCHAR ampersand
ENCODING 38
SWIDTH 886 0
DWIDTH 16 0
BBX 9 14 2 0
BITMAP
3C00
7E00
6200
4600
6E00
7C00
3800
7880
D980
CD80
C780
C700
7F00
3D00
ENDCHAR
STARTCHAR quotesingle
ENCODING 39
SWIDTH 886 0
DWIDTH 16 0
BBX 3 7 5 7
BITMAP
E0
E0
E0
E0
E0
E0
E0
ENDCHAR
STARTCHAR parenleft
ENCODING 40
SWIDTH 886 0
DWIDTH 16 0
BBX 5 14 5 0
BITMAP
18
38
60
C0
C0
C0
80
80
C0
C0
C0
60
30
18
ENDCHAR
STARTCHAR parenright
ENCODING 41
SWIDTH 886 0
DWIDTH 16 0
BBX 5 14 3 0
BITMAP
C0
E0
30
18
18
18
08
08
08
18
18
30
60
C0
ENDCHAR
STARTCHAR asterisk
ENCODING 42
SWIDTH 886 0
DWIDTH 16 0
BBX 9 9 2 3
BITMAP
0800
0800
0800
C980
FF80
1C00
3E00
3600
6300
ENDCHAR
STARTCHAR plus
ENCODING 43
SWIDTH 886 0
DWIDTH 16 0
BBX 9 10 2 2
BITMAP
0800
0800
0800
0800
FF80
FF80
0800
0800
0800
0800
ENDCHAR
STARTCHAR comma
ENCODING 44
SWIDTH 886 0
DWIDTH 16 0
BBX 7 7 3 -3
BITMAP
1E
3E
3C
78
70
E0
C0
ENDCHAR
STARTCHAR hyphen
ENCODING 45
SWIDTH 886 0
DWIDTH 16 0
BBX 9 2 2 6
BITMAP
FF80
FF80
ENDCHAR
STARTCHAR period
ENCODING 46
SWIDTH 886 0
DWIDTH 16 0
BBX 5 4 4 0
BITMAP
70
F8
F8
F8
ENDCHAR
STARTCHAR slash
ENCODING 47
SWIDTH 886 0
DWIDTH 16 0
BBX 7 14 3 0
BITMAP
06
06
0C
0C
0C
18
18
30
30
30
60
60
C0
C0
ENDCHAR
STARTCHAR zero
ENCODING 48
SWIDTH 886 0
DWIDTH 16 0
BBX 9 14 2 0
BITMAP
3E00
7F00
6300
C180
C180
C180
C180
C180
C180
C180
C180
6300
7F00
3E00
ENDCHAR
STARTCHAR one
ENCODING 49
SWIDTH 886 0
DWIDTH 16 0
BBX 5 14 3 0
BITMAP
18
38
78
D8
98
18
18
18
18
18
18
18
18
18
ENDCHAR
STARTCHAR two
ENCODING 50
SWIDTH 886 0
DWIDTH 16 0
BBX 9 14 2 0
BITMAP
3E00
7F00
C180
0180
0380
0700
0E00
1C00
3800
7000
E000
C000
FF00
7F80
ENDCHAR
STARTCHAR three
ENCODING 51
SWIDTH 886 0
DWIDTH 16 0
BBX 9 14 2 0
BITMAP
FF00
FF00
0300
0600
0C00
1C00
1E00
0300
0180
0180
0180
0300
FF00
7C00
ENDCHAR
STARTCHAR four
ENCODING 52
SWIDTH 886 0
DWIDTH 16 0
BBX 9 14 2 0
BITMAP
0C00
0C00
1800
1800
3000
3000
6200
6600
C600
FF80
FF80
0600
0600
0600
ENDCHAR
STARTCHAR five
ENCODING 53
SWIDTH 886 0
DWIDTH 16 0
BBX 8 14 2 0
BITMAP
7F
7F
60
60
60
7C
7E
03
03
03
03
06
FE
7C
ENDCHAR
STARTCHAR six
ENCODING 54
SWIDTH 886 0
DWIDTH 16 0
BBX 9 14 2 0
BITMAP
0600
0E00
1C00
1800
3000
7C00
7F00
E380
C180
C180
C180
E180
7F00
3E00
ENDCHAR
STARTCHAR seven
ENCODING 55
SWIDTH 886 0
DWIDTH 16 0
BBX 9 14 2 0
BITMAP
FF80
FF80
0180
0300
0700
0600
0C00
1800
1800
1800
3000
3000
3000
3000
ENDCHAR
STARTCHAR eight
ENCODING 56
SWIDTH 886 0
DWIDTH 16 0
BBX 9 14 2 0
BITMAP
3E00
7F00
6300
4100
6300
3E00
3E00
7700
E380
C180
C180
C180
7F00
3E00
ENDCHAR
STARTCHAR nine
ENCODING 57
SWIDTH 886 0
DWIDTH 16 0
BBX 9 14 2 0
BITMAP
3E00
7F00
6380
C180
C180
C180
E180
7F00
3F00
0600
0600
0C00
1800
3000
ENDCHAR
STARTCHAR colon
ENCODING 58
SWIDTH 886 0
DWIDTH 16 0
BBX 3 9 5 0
BITMAP
E0
E0
E0
00
00
00
E0
E0
E0
ENDCHAR
STARTCHAR semicolon
ENCODING 59
SWIDTH 886 0
DWIDTH 16 0
BBX 6 13 3 -4
BITMAP
3C
3C
3C
00
00
00
3C
3C
78
70
E0
E0
C0
ENDCHAR
STARTCHAR less
ENCODING 60
SWIDTH 886 0
DWIDTH 16 0
BBX 9 11 2 1
BITMAP
0380
0700
1E00
3800
F000
E000
7800
1C00
0F00
0380
0180
ENDCHAR
STARTCHAR equal
ENCODING 61
SWIDTH 886 0
DWIDTH 16 0
BBX 9 6 2 4
BITMAP
FF80
FF80
0000
0000
FF80
FF80
ENDCHAR
STARTCHAR greater
ENCODING 62
SWIDTH 886 0
DWIDTH 16 0
BBX 9 11 2 1
BITMAP
E000
7000
3C00
0E00
0780
0380
0F00
1C00
7800
E000
C000
ENDCHAR
STARTCHAR question
ENCODING 63
SWIDTH 886 0
DWIDTH 16 0
BBX 7 14 3 -1
BITMAP
38
FC
C6
86
06
0C
18
10
10
00
00
10
38
38
ENDCHAR
STARTCHAR at
ENCODING 64
SWIDTH 886 0
DWIDTH 16 0
BBX 9 13 2 0
BITMAP
3E00
7F00
C300
C180
0180
7D80
7D80
CD80
CD80
CD80
CD80
FF80
7700
ENDCHAR
STARTCHAR A
ENCODING 65
SWIDTH 886 0
DWIDTH 16 0
BBX 9 13 2 0
BITMAP
1C00
1C00
1400
3600
3600
3600
3200
6300
7F00
7F00
6100
C180
C180
ENDCHAR
STARTCHAR B
ENCODING 66
SWIDTH 886 0
DWIDTH 16 0
BBX 9 13 2 0
BITMAP
FE00
FF00
C380
C180
C180
FF00
FF00
C380
C180
C180
C180
FF00
FE00
ENDCHAR
STARTCHAR C
ENCODING 67
SWIDTH 886 0
DWIDTH 16 0
BBX 7 13 3 0
BITMAP
1C
7E
66
C2
C0
C0
C0
C0
C0
C0
E6
7E
3C
ENDCHAR
STARTCHAR D
ENCODING 68
SWIDTH 886 0
DWIDTH 16 0
BBX 8 13 3 0
BITMAP
F0
F8
DC
C6
C6
C2
C3
C3
C2
C6
CE
FC
F0
ENDCHAR
STARTCHAR E
ENCODING 69
SWIDTH 886 0
DWIDTH 16 0
BBX 8 13 3 0
BITMAP
FF
FF
C0
C0
C0
FE
FE
C0
C0
C0
C0
FF
FF
ENDCHAR
STARTCHAR F
ENCODING 70
SWIDTH 886 0
DWIDTH 16 0
BBX 6 13 4 0
BITMAP
FC
FC
C0
C0
C0
F8
FC
C0
C0
C0
C0
C0
80
ENDCHAR
STARTCHAR G
ENCODING 71
SWIDTH 886 0
DWIDTH 16 0
BBX 9 13 2 0
BITMAP
1E00
3F00
6180
6000
C000
C000
CF00
CF80
C180
6180
6180
3F80
1F00
ENDCHAR
STARTCHAR H
ENCODING 72
SWIDTH 886 0
DWIDTH 16 0
BBX 8 14 3 -1
BITMAP
82
83
83
83
83
83
FF
FF
83
83
83
83
83
82
ENDCHAR
STARTCHAR I
ENCODING 73
SWIDTH 886 0
DWIDTH 16 0
BBX 7 13 3 0
BITMAP
7C
7E
10
10
10
10
10
10
10
10
10
FE
FE
ENDCHAR
STARTCHAR J
ENCODING 74
SWIDTH 886 0
DWIDTH 16 0
BBX 7 13 2 0
BITMAP
06
06
06
06
06
06
06
06
46
C6
C6
7C
38
ENDCHAR
STARTCHAR K
ENCODING 75
SWIDTH 886 0
DWIDTH 16 0
BBX 9 13 2 0
BITMAP
C180
C300
C600
CC00
D800
F000
F000
F800
DC00
CE00
C700
C380
C180
ENDCHAR
STARTCHAR L
ENCODING 76
SWIDTH 886 0
DWIDTH 16 0
BBX 8 13 3 0
BITMAP
80
80
80
80
80
80
80
80
80
80
80
FF
FF
ENDCHAR
STARTCHAR M
ENCODING 77
SWIDTH 886 0
DWIDTH 16 0
BBX 9 13 2 0
BITMAP
E380
E380
F780
F780
F780
DD80
DD80
DD80
C980
C180
C180
C180
C180
ENDCHAR
STARTCHAR N
ENCODING 78
SWIDTH 886 0
DWIDTH 16 0
BBX 9 13 2 0
BITMAP
E180
E180
F180
F180
D980
D980
CD80
CD80
CD80
C780
C780
C380
C380
ENDCHAR
STARTCHAR O
ENCODING 79
SWIDTH 886 0
DWIDTH 16 0
BBX 9 13 2 0
BITMAP
1C00
3E00
6300
4100
C180
C180
C180
C180
C180
6100
6300
3E00
1C00
ENDCHAR
STARTCHAR P
ENCODING 80
SWIDTH 886 0
DWIDTH 16 0
BBX 8 13 3 0
BITMAP
FC
FE
83
83
83
83
FE
FC
80
80
80
80
80
ENDCHAR
STARTCHAR Q
ENCODING 81
SWIDTH 886 0
DWIDTH 16 0
BBX 9 13 2 0
BITMAP
1C00
7E00
6700
C300
C100
C180
C180
D900
CD00
C700
6700
3F00
1D80
ENDCHAR
STARTCHAR R
ENCODING 82
SWIDTH 886 0
DWIDTH 16 0
BBX 8 13 3 0
BITMAP
F8
FE
C6
C2
C2
C6
FE
F8
DC
CC
C6
C6
C3
ENDCHAR
STARTCHAR S
ENCODING 83
SWIDTH 886 0
DWIDTH 16 0
BBX 7 13 3 0
BITMAP
38
FE
C6
C2
C0
70
3C
0E
06
82
C6
FE
78
ENDCHAR
STARTCHAR T
ENCODING 84
SWIDTH 886 0
DWIDTH 16 0
BBX 9 13 2 0
BITMAP
FF80
FF80
0800
0800
0800
0800
0800
0800
0800
0800
0800
0800
0800
ENDCHAR
STARTCHAR U
ENCODING 85
SWIDTH 886 0
DWIDTH 16 0
BBX 9 13 2 0
BITMAP
C180
C180
C180
C180
C180
C180
C180
C180
C180
C180
6380
7F00
3E00
ENDCHAR
STARTCHAR V
ENCODING 86
SWIDTH 886 0
DWIDTH 16 0
BBX 9 13 2 0
BITMAP
C180
C180
C180
6100
6300
6300
6300
3600
3600
3600
1400
1C00
1C00
ENDCHAR
STARTCHAR W
ENCODING 87
SWIDTH 886 0
DWIDTH 16 0
BBX 9 13 2 0
BITMAP
C180
C180
C180
C180
C180
C980
DD80
DD80
5D80
7700
7700
7700
6300
ENDCHAR
STARTCHAR X
ENCODING 88
SWIDTH 886 0
DWIDTH 16 0
BBX 9 13 2 0
BITMAP
4100
6300
6300
3600
3600
1C00
1C00
1C00
3600
3600
6300
6300
C180
ENDCHAR
STARTCHAR Y
ENCODING 89
SWIDTH 886 0
DWIDTH 16 0
BBX 8 13 3 0
BITMAP
83
C6
C6
6C
6C
38
38
10
10
10
10
10
10
ENDCHAR
STARTCHAR Z
ENCODING 90
SWIDTH 886 0
DWIDTH 16 0
BBX 7 13 3 0
BITMAP
FE
FE
0C
0C
18
18
30
30
60
60
C0
FE
FE
ENDCHAR
STARTCHAR bracketleft
ENCODING 91
SWIDTH 886 0
DWIDTH 16 0
BBX 7 14 4 0
BITMAP
FE
FC
C0
C0
C0
C0
C0
C0
C0
C0
C0
C0
FC
FE
ENDCHAR
STARTCHAR backslash
ENCODING 92
SWIDTH 886 0
DWIDTH 16 0
BBX 7 14 3 0
BITMAP
C0
C0
60
60
60
30
30
18
18
08
0C
0C
06
06
ENDCHAR
STARTCHAR bracketright
ENCODING 93
SWIDTH 886 0
DWIDTH 16 0
BBX 7 14 2 0
BITMAP
FE
7E
06
06
06
06
06
06
06
06
06
06
7E
FE
ENDCHAR
STARTCHAR underscore
ENCODING 95
SWIDTH 886 0
DWIDTH 16 0
BBX 9 2 2 -4
BITMAP
FF80
FF80
ENDCHAR
STARTCHAR grave
ENCODING 96
SWIDTH 886 0
DWIDTH 16 0
BBX 2 3 5 11
BITMAP
80
C0
C0
ENDCHAR
STARTCHAR a
ENCODING 97
SWIDTH 886 0
DWIDTH 16 0
BBX 8 10 2 0
BITMAP
1C
7F
63
01
3F
7F
C3
C3
7F
3D
ENDCHAR
STARTCHAR b
ENCODING 98
SWIDTH 886 0
DWIDTH 16 0
BBX 9 14 2 0
BITMAP
C000
C000
C000
C000
DC00
FF00
E380
C180
C180
C180
C180
E380
FF00
DE00
ENDCHAR
STARTCHAR c
ENCODING 99
SWIDTH 886 0
DWIDTH 16 0
BBX 7 10 3 0
BITMAP
3C
7E
C6
C0
C0
C0
C0
C6
7E
3C
ENDCHAR
STARTCHAR d
ENCODING 100
SWIDTH 886 0
DWIDTH 16 0
BBX 9 14 2 0
BITMAP
0180
0180
0180
0180
1D80
7F80
6380
C180
C180
C180
C180
E380
7F80
3D80
ENDCHAR
STARTCHAR e
ENCODING 101
SWIDTH 886 0
DWIDTH 16 0
BBX 9 10 2 0
BITMAP
1C00
3F00
6300
C180
FF80
FF80
C000
6000
7F00
1E00
ENDCHAR
STARTCHAR f
ENCODING 102
SWIDTH 886 0
DWIDTH 16 0
BBX 7 14 3 0
BITMAP
06
1E
18
10
FE
FE
10
10
10
10
10
10
10
10
ENDCHAR
STARTCHAR g
ENCODING 103
SWIDTH 886 0
DWIDTH 16 0
BBX 9 14 2 -4
BITMAP
1D00
7F80
6380
C380
C180
C180
C380
6380
7F80
3D80
0180
6300
7F00
3C00
ENDCHAR
STARTCHAR h
ENCODING 104
SWIDTH 886 0
DWIDTH 16 0
BBX 7 14 3 0
BITMAP
C0
C0
C0
C0
D8
FE
E6
C6
C6
C6
C6
C6
C6
C6
ENDCHAR
STARTCHAR i
ENCODING 105
SWIDTH 886 0
DWIDTH 16 0
BBX 5 14 3 0
BITMAP
18
18
18
00
F8
F8
18
18
18
18
18
18
18
08
ENDCHAR
STARTCHAR j
ENCODING 106
SWIDTH 886 0
DWIDTH 16 0
BBX 5 17 3 -3
BITMAP
18
18
18
00
78
78
18
18
18
18
18
18
18
18
18
F8
F0
ENDCHAR
STARTCHAR k
ENCODING 107
SWIDTH 886 0
DWIDTH 16 0
BBX 7 14 3 0
BITMAP
C0
C0
C0
C0
C6
CE
DC
F8
F0
F8
DC
CE
C6
C2
ENDCHAR
STARTCHAR l
ENCODING 108
SWIDTH 886 0
DWIDTH 16 0
BBX 5 14 5 0
BITMAP
80
80
80
80
80
80
80
80
80
80
80
C0
F8
78
ENDCHAR
STARTCHAR m
ENCODING 109
SWIDTH 886 0
DWIDTH 16 0
BBX 9 10 2 0
BITMAP
F300
FF80
CD80
CD80
C980
C980
C980
C980
C980
C980
ENDCHAR
STARTCHAR n
ENCODING 110
SWIDTH 886 0
DWIDTH 16 0
BBX 9 10 2 0
BITMAP
5E00
FF00
E300
E180
C180
C180
C180
C180
C180
C180
ENDCHAR
STARTCHAR o
ENCODING 111
SWIDTH 886 0
DWIDTH 16 0
BBX 9 10 2 0
BITMAP
1C00
7F00
6300
C180
C180
C180
C180
6380
7F00
3E00
ENDCHAR
STARTCHAR p
ENCODING 112
SWIDTH 886 0
DWIDTH 16 0
BBX 9 13 2 -3
BITMAP
5C00
FF00
E300
C180
C180
C180
C180
E380
FF00
DE00
C000
C000
C000
ENDCHAR
STARTCHAR q
ENCODING 113
SWIDTH 886 0
DWIDTH 16 0
BBX 9 13 2 -3
BITMAP
1D80
7F80
6380
C180
C180
C180
C180
E380
7F80
3D80
0180
0180
0180
ENDCHAR
STARTCHAR r
ENCODING 114
SWIDTH 886 0
DWIDTH 16 0
BBX 7 10 4 0
BITMAP
98
FC
E6
C4
C0
80
80
80
80
80
ENDCHAR
STARTCHAR s
ENCODING 115
SWIDTH 886 0
DWIDTH 16 0
BBX 7 10 3 0
BITMAP
38
FE
C6
C0
F8
3E
06
82
FE
7C
ENDCHAR
STARTCHAR t
ENCODING 116
SWIDTH 886 0
DWIDTH 16 0
BBX 8 13 2 0
BITMAP
10
10
10
7F
FF
10
10
30
30
30
10
1F
0F
ENDCHAR
STARTCHAR u
ENCODING 117
SWIDTH 886 0
DWIDTH 16 0
BBX 9 10 2 0
BITMAP
C180
C180
C180
C180
C180
C180
C180
C380
7F80
3D80
ENDCHAR
STARTCHAR v
ENCODING 118
SWIDTH 886 0
DWIDTH 16 0
BBX 9 10 2 0
BITMAP
C180
C180
4100
6300
6300
3600
3600
3600
1C00
1C00
ENDCHAR
STARTCHAR w
ENCODING 119
SWIDTH 886 0
DWIDTH 16 0
BBX 9 10 2 0
BITMAP
C180
C180
C180
C180
DD80
5D00
7F00
7700
7700
7700
ENDCHAR
STARTCHAR x
ENCODING 120
SWIDTH 886 0
DWIDTH 16 0
BBX 7 10 3 0
BITMAP
C6
C6
6C
7C
38
38
6C
EE
C6
82
ENDCHAR
STARTCHAR y
ENCODING 121
SWIDTH 886 0
DWIDTH 16 0
BBX 9 13 2 -3
BITMAP
C180
C180
6300
6300
3600
1E00
1C00
0C00
1800
3000
3000
E000
E000
ENDCHAR
STARTCHAR z
ENCODING 122
SWIDTH 886 0
DWIDTH 16 0
BBX 7 10 3 0
BITMAP
FE
FE
0E
0C
18
30
60
E0
FE
FE
ENDCHAR
STARTCHAR braceleft
ENCODING 123
SWIDTH 886 0
DWIDTH 16 0
BBX 9 14 2 0
BITMAP
0780
0F80
1800
1800
1800
1800
F000
F000
1800
1800
1800
1800
0F80
0780
ENDCHAR
STARTCHAR bar
ENCODING 124
SWIDTH 886 0
DWIDTH 16 0
BBX 1 17 6 -3
BITMAP
80
80
80
80
80
80
80
80
80
80
80
80
80
80
80
80
80
ENDCHAR
STARTCHAR braceright
ENCODING 125
SWIDTH 886 0
DWIDTH 16 0
BBX 9 14 2 0
BITMAP
F000
F800
0C00
0C00
0C00
0C00
0780
0780
0C00
0C00
0C00
0C00
F800
F000
ENDCHAR
STARTCHAR exclamdown
ENCODING 161
SWIDTH 886 0
DWIDTH 16 0
BBX 3 12 5 -4
BITMAP
E0
E0
40
40
40
40
40
40
40
40
40
40
ENDCHAR
STARTCHAR currency
ENCODING 164
SWIDTH 886 0
DWIDTH 16 0
BBX 9 9 2 2
BITMAP
DD80
7F00
6300
6100
4100
6300
7F00
DD80
8080
ENDCHAR
STARTCHAR section
ENCODING 167
SWIDTH 886 0
DWIDTH 16 0
BBX 9 14 2 0
BITMAP
3E00
7F00
6300
4000
7C00
7F00
C180
C180
7F00
1F00
4180
C180
7F00
3E00
ENDCHAR
STARTCHAR dieresis
ENCODING 168
SWIDTH 886 0
DWIDTH 16 0
BBX 5 3 4 5
BITMAP
D8
D8
D8
ENDCHAR
STARTCHAR macron
ENCODING 175
SWIDTH 886 0
DWIDTH 16 0
BBX 9 2 2 10
BITMAP
7F80
FF80
ENDCHAR
STARTCHAR acute
ENCODING 180
SWIDTH 886 0
DWIDTH 16 0
BBX 2 3 6 9
BITMAP
C0
C0
80
ENDCHAR
STARTCHAR cedilla
ENCODING 184
SWIDTH 886 0
DWIDTH 16 0
BBX 4 7 5 -6
BITMAP
40
C0
E0
70
30
70
60
ENDCHAR
STARTCHAR questiondown
ENCODING 191
SWIDTH 886 0
DWIDTH 16 0
BBX 7 14 3 -4
BITMAP
38
38
10
00
10
10
10
30
60
C0
C2
C6
7E
3C
ENDCHAR
STARTCHAR Adieresis
ENCODING 196
SWIDTH 886 0
DWIDTH 16 0
BBX 9 14 2 0
BITMAP
C180
CD80
DD80
1C00
1400
3600
3600
3600
2300
7300
7F00
4700
C180
C180
ENDCHAR
STARTCHAR AE
ENCODING 198
SWIDTH 886 0
DWIDTH 16 0
BBX 15 13 -1 0
BITMAP
1FFC
1FFE
1C00
3600
3600
37FC
67FE
6300
7F00
7F00
C300
C1FC
C1FE
ENDCHAR
STARTCHAR Odieresis
ENCODING 214
SWIDTH 886 0
DWIDTH 16 0
BBX 9 14 2 0
BITMAP
C180
C180
C180
1E00
7F00
6300
C180
C180
C180
C180
C180
6300
7F00
1C00
ENDCHAR
STARTCHAR Oslash
ENCODING 216
SWIDTH 886 0
DWIDTH 16 0
BBX 9 15 2 -1
BITMAP
0080
1D80
3F80
6300
4700
C780
CD80
DD80
D980
F180
7100
6300
FE00
DC00
8000
ENDCHAR
STARTCHAR Udieresis
ENCODING 220
SWIDTH 886 0
DWIDTH 16 0
BBX 9 14 2 0
BITMAP
E380
E180
0000
8080
C180
C180
C180
C180
C180
C180
C180
C180
7F00
3E00
ENDCHAR
STARTCHAR germandbls
ENCODING 223
SWIDTH 886 0
DWIDTH 16 0
BBX 9 14 2 0
BITMAP
1C00
7F00
6300
4180
C180
C300
CF00
CF00
C180
C180
C180
C180
C700
C600
ENDCHAR
STARTCHAR adieresis
ENCODING 228
SWIDTH 886 0
DWIDTH 16 0
BBX 8 13 2 0
BITMAP
36
36
36
00
3E
7F
03
3F
7F
C3
C3
7F
3D
ENDCHAR
STARTCHAR ae
ENCODING 230
SWIDTH 886 0
DWIDTH 16 0
BBX 15 10 -1 0
BITMAP
1C78
7FFC
638E
0186
3FFE
7FFE
C180
C380
7FFC
3D7C
ENDCHAR
STARTCHAR odieresis
ENCODING 246
SWIDTH 886 0
DWIDTH 16 0
BBX 9 13 2 0
BITMAP
3600
3600
3600
0000
3E00
7F00
E380
C180
C180
C180
E380
7F00
3E00
ENDCHAR
STARTCHAR oslash
ENCODING 248
SWIDTH 886 0
DWIDTH 16 0
BBX 11 12 1 -1
BITMAP
0060
0EE0
3FC0
3180
63C0
66C0
6CC0
78C0
39C0
7F80
7F00
C000
ENDCHAR
STARTCHAR udieresis
ENCODING 252
SWIDTH 886 0
DWIDTH 16 0
BBX 9 13 2 0
BITMAP
3600
3600
3600
0000
C180
C180
C180
C180
C180
C180
C380
7F80
3D80
ENDCHAR
STARTCHAR dotlessi
ENCODING 305
SWIDTH 886 0
DWIDTH 16 0
BBX 5 10 3 0
BITMAP
F8
F8
18
18
18
18
18
18
18
08
ENDCHAR
STARTCHAR OE
ENCODING 338
SWIDTH 886 0
DWIDTH 16 0
BBX 15 13 -1 0
BITMAP
3DFC
7FFE
E700
C300
C300
81F8
81FC
8100
C300
C300
6700
7FFC
3DFE
ENDCHAR
STARTCHAR oe
ENCODING 339
SWIDTH 886 0
DWIDTH 16 0
BBX 16 10 -2 0
BITMAP
1E3C
3F7E
63C7
61C3
C0FF
C0FF
41C0
61C0
7F7E
1E3E
ENDCHAR
STARTCHAR dotlessj
ENCODING 567
SWIDTH 886 0
DWIDTH 16 0
BBX 5 13 3 -3
BITMAP
78
78
18
18
18
18
18
18
18
18
18
F8
F0
ENDCHAR
STARTCHAR circumflex
ENCODING 710
SWIDTH 886 0
DWIDTH 16 0
BBX 9 7 2 7
BITMAP
0800
1C00
3E00
3E00
7700
6380
C180
ENDCHAR
STARTCHAR caron
ENCODING 711
SWIDTH 886 0
DWIDTH 16 0
BBX 9 7 2 10
BITMAP
C180
E380
7700
3E00
3E00
1C00
0800
ENDCHAR
STARTCHAR breve
ENCODING 728
SWIDTH 886 0
DWIDTH 16 0
BBX 9 5 2 12
BITMAP
C180
C180
E380
7F00
3E00
ENDCHAR
STARTCHAR dotaccent
ENCODING 729
SWIDTH 886 0
DWIDTH 16 0
BBX 3 3 5 8
BITMAP
E0
E0
40
ENDCHAR
STARTCHAR tilde
ENCODING 732
SWIDTH 886 0
DWIDTH 16 0
BBX 9 3 2 10
BITMAP
7980
FF80
CF00
ENDCHAR
STARTCHAR Gamma
ENCODING 915
SWIDTH 886 0
DWIDTH 16 0
BBX 8 13 3 0
BITMAP
FF
FF
83
83
80
80
80
80
80
80
80
80
80
ENDCHAR
STARTCHAR Theta
ENCODING 920
SWIDTH 886 0
DWIDTH 16 0
BBX 9 13 2 0
BITMAP
1C00
3E00
6300
6100
C180
C180
DD80
DD80
C180
4180
6300
3E00
1C00
ENDCHAR
STARTCHAR Lambda
ENCODING 923
SWIDTH 886 0
DWIDTH 16 0
BBX 7 13 3 0
BITMAP
10
38
38
38
38
2C
6C
6C
6C
44
C6
C6
C6
ENDCHAR
STARTCHAR Xi
ENCODING 926
SWIDTH 886 0
DWIDTH 16 0
BBX 9 13 2 0
BITMAP
FF80
FF80
0000
0000
0000
3E00
7F00
0000
0000
0000
0000
FF80
FF80
ENDCHAR
STARTCHAR Pi
ENCODING 928
SWIDTH 886 0
DWIDTH 16 0
BBX 9 13 2 0
BITMAP
FF80
FF80
4180
4180
4180
4180
4180
4180
4180
4180
4180
4180
4100
ENDCHAR
STARTCHAR Sigma
ENCODING 931
SWIDTH 886 0
DWIDTH 16 0
BBX 8 13 3 0
BITMAP
F0
FF
C3
60
60
60
30
60
60
60
C0
FF
FF
ENDCHAR
STARTCHAR Upsilon
ENCODING 933
SWIDTH 886 0
DWIDTH 16 0
BBX 7 12 3 0
BITMAP
6E
FE
92
10
10
10
10
10
10
10
10
10
ENDCHAR
STARTCHAR Phi
ENCODING 934
SWIDTH 886 0
DWIDTH 16 0
BBX 9 14 2 -2
BITMAP
1C00
0C00
3E00
7F00
6B80
C980
C980
C980
C980
6B80
7F00
3E00
0800
1C00
ENDCHAR
STARTCHAR Psi
ENCODING 936
SWIDTH 886 0
DWIDTH 16 0
BBX 7 13 3 -2
BITMAP
D6
D6
D6
D6
D6
D6
D6
D6
54
7C
38
10
10
ENDCHAR
STARTCHAR Omega
ENCODING 8486
SWIDTH 886 0
DWIDTH 16 0
BBX 9 15 2 0
BITMAP
1C00
7F00
6300
C180
C180
C180
C180
C180
4100
6300
6300
6300
2200
3600
3600
ENDCHAR
STARTCHAR arrowup
ENCODING 8593
SWIDTH 886 0
DWIDTH 16 0
BBX 7 13 3 0
BITMAP
10
38
7C
D6
10
10
10
10
10
10
10
10
10
ENDCHAR
STARTCHAR arrowdown
ENCODING 8595
SWIDTH 886 0
DWIDTH 16 0
BBX 7 13 3 0
BITMAP
10
10
10
10
10
10
10
10
10
D6
7C
38
10
ENDCHAR
STARTCHAR Delta
ENCODING 8710
SWIDTH 886 0
DWIDTH 16 0
BBX 7 13 3 0
BITMAP
10
38
38
38
28
6C
6C
6C
46
C6
C6
FE
FE
ENDCHAR
ENDFONT
